<svg width="1559" height="200" viewBox="0 0 1559 200" fill="none" xmlns="http://www.w3.org/2000/svg">
<g clip-path="url(#clip0_2065_32)">
<path d="M0 185.59C13.8381 194.836 33.3743 200.002 56.9806 200.002C97.4099 200.002 124.543 180.424 124.815 144.529C125.086 116.248 112.333 97.2132 78.6875 86.8798L57.2519 79.8097C39.6152 74.0992 32.0176 66.7571 32.0176 52.6168C32.0176 38.2046 46.6699 30.3186 66.206 30.3186C81.6722 30.3186 99.5806 34.9413 112.062 42.2834V9.92378C103.379 5.30097 87.9131 0.40625 65.9346 0.40625C27.1336 0.40625 0 20.2571 0 54.5201C0 80.6255 13.5668 99.9324 44.4991 109.45L67.834 117.336C85.7424 123.046 93.0684 133.108 93.0684 146.16C93.0684 160.845 80.0442 170.09 58.3373 170.09C37.4445 170.09 12.4815 162.204 0 150.24V185.59Z" fill="white"/>
<path d="M159.189 196.734H279.12V166.278H190.936V3.66406H159.189V196.734Z" fill="white"/>
<path d="M308.107 196.734H339.854V3.66406H308.107V196.734Z" fill="white"/>
<path d="M455.448 3.66406H387.069V196.734H418.815V121.681H455.448C494.52 121.681 519.484 95.5762 519.484 62.6727C519.484 29.7693 494.52 3.66406 455.448 3.66406ZM455.176 91.7691H418.815V33.5762H455.176C476.884 33.5762 488.278 46.6288 488.278 62.6727C488.278 78.7165 476.884 91.7691 455.176 91.7691Z" fill="white"/>
<path d="M542.144 185.59C555.982 194.836 575.517 200.002 599.123 200.002C639.553 200.002 666.687 180.424 666.958 144.529C667.23 116.248 654.478 97.2132 620.83 86.8798L599.394 79.8097C581.758 74.0992 574.161 66.7571 574.161 52.6168C574.161 38.2046 588.812 30.3186 608.35 30.3186C623.815 30.3186 641.723 34.9413 654.206 42.2834V9.92378C645.523 5.30097 630.057 0.40625 608.078 0.40625C569.278 0.40625 542.144 20.2571 542.144 54.5201C542.144 80.6255 555.711 99.9324 586.642 109.45L609.976 117.336C627.887 123.046 635.212 133.108 635.212 146.16C635.212 160.845 622.188 170.09 600.481 170.09C579.588 170.09 554.624 162.204 542.144 150.24V185.59Z" fill="white"/>
<path d="M736.922 196.734H768.669V34.1201H824.836V3.66406H681.027V34.1201H736.922V196.734Z" fill="white"/>
<path d="M853.43 196.734H885.176V111.892L968.477 196.734H1008.36L925.334 111.892C955.994 108.085 976.075 87.6903 975.803 58.5939C975.531 26.7781 953.281 3.66406 917.466 3.66406H853.43V196.734ZM885.176 84.155V33.0324H913.666C932.388 33.0324 944.057 42.0061 944.057 58.5939C944.057 74.9097 932.388 84.155 913.666 84.155H885.176Z" fill="white"/>
<path d="M1025.4 196.734H1141.26V166.278H1057.15V114.067H1116.3V83.6115H1057.15V34.1201H1141.26V3.66406H1025.4V196.734Z" fill="white"/>
<path d="M1368.54 196.739H1400.29V77.9061L1463.51 146.976L1526.46 77.9061V196.739H1558.21V0.40625L1463.51 102.924L1368.54 0.40625V196.739Z" fill="white"/>
<path d="M1298.06 153.477L1319.17 196.334H1352.27L1331.13 153.477H1298.06Z" fill="white"/>
<path d="M1316.39 123.604L1255.41 0L1158.81 196.333H1191.92L1213.35 152.824L1255.41 66.3507L1283.43 123.604H1316.39Z" fill="white"/>
</g>
<defs>
<clipPath id="clip0_2065_32">
<rect width="1558.21" height="200" fill="white"/>
</clipPath>
</defs>
</svg>
